Patient5_TMGait_0pt45_1_left_05_GRF.mot
version=1
nRows=65
nColumns=19
inDegrees=no
endheader
time	F1x	F1y	F1z	M1x	M1y	M1z	F2x	F2y	F2z	M2x	M2y	M2z	EC1x	EC1y	EC1z	EC2x	EC2y	EC2z
6.8	18.7177	95.9061	-4.3318	-33.3709	9.6137	77.2813	-40.3496	752.3474	-21.1876	301.7761	36.821	742.8288	-0.0592	0.0182	-0.0073	-0.0462	0.0165	0.9585
6.8173	11.1386	76.4174	-2.9024	-26.5999	5.9888	61.063	-35.3194	792.2861	-28.0896	318.6582	41.2938	773.8797	-0.0592	0.0182	-0.0073	-0.0462	0.0165	0.9585
6.8346	4.3402	56.0243	-1.5906	-19.4678	2.6758	44.4276	-28.5092	835.3117	-34.7328	336.7075	44.5634	806.6451	-0.0592	0.0182	-0.0073	-0.0462	0.0165	0.9585
6.8519	-0.68163	37.2324	-0.52777	-12.8697	0.13371	29.3879	-20.3608	874.7041	-40.8936	353.0135	46.5864	835.3787	-0.0592	0.0182	-0.0073	-0.0462	0.0165	0.9585
6.8691	-3.4524	21.6749	0.21463	-7.3976	-1.4024	17.1499	-11.8289	905.0413	-46.445	365.2528	47.6757	855.6085	-0.0592	0.0182	-0.0073	-0.0462	0.0165	0.9585
6.8864	-4.1039	10.1543	0.60381	-3.346	-1.9375	8.2166	-4.1838	923.0211	-51.1485	372.0503	48.2126	864.7996	-0.0592	0.0182	-0.0073	-0.0462	0.0165	0.9585
6.9037	-3.5251	2.8215	0.71318	-0.7694	-1.8265	2.6033	1.4881	927.3953	-54.8004	372.9398	48.5421	862.199	-0.0592	0.0182	-0.0073	-0.0462	0.0165	0.9585
6.921	-2.525	-1.0041	0.67347	0.57607	-1.4515	-0.24558	4.7659	918.9191	-57.3723	368.3211	48.88	848.7152	-0.0592	0.0182	-0.0073	-0.0462	0.0165	0.9585
6.9383	-1.5534	-2.3965	0.5668	1.0717	-1.0291	-1.2008	6.0748	900.4029	-58.9686	359.4555	49.1866	826.8942	-0.0592	0.0182	-0.0073	-0.0462	0.0165	0.9585
6.9556	-0.8062	-2.3816	0.45729	1.0788	-0.67924	-1.0984	6.403	876.0909	-59.7642	348.1916	49.2312	800.3899	-0.0592	0.0182	-0.0073	-0.0462	0.0165	0.9585
6.9729	-0.31413	-1.7574	0.38588	0.87827	-0.44875	-0.57012	6.8235	850.5862	-59.9545	336.5102	48.7493	773.094	-0.0592	0.0182	-0.0073	-0.0462	0.0165	0.9585
6.9901	-0.026366	-1.0913	0.37431	0.66672	-0.34633	-0.071318	8.1517	827.9827	-59.6983	326.1559	47.5446	748.413	-0.0592	0.0182	-0.0073	-0.0462	0.0165	0.9585
7.0074	0.12808	-0.78043	0.44987	0.58204	-0.38357	0.066903	10.8661	811.3079	-59.1267	318.4048	45.5387	728.7932	-0.0592	0.0182	-0.0073	-0.0462	0.0165	0.9585
7.0247	0.20618	-1.1128	0.63023	0.73093	-0.56751	-0.44059	15.0869	802.2496	-58.3797	313.9478	42.8203	715.5209	-0.0592	0.0182	-0.0073	-0.0462	0.0165	0.9585
7.042	0.23472	-2.2894	0.91536	1.195	-0.89273	-1.8249	20.5871	801.0796	-57.5778	312.8678	39.6082	708.7294	-0.0592	0.0182	-0.0073	-0.0462	0.0165	0.9585
7.0593	0.20305	-4.3846	1.2817	2.0052	-1.3382	-4.1743	26.8765	806.9343	-56.8065	314.7592	36.1893	707.6642	-0.0592	0.0182	-0.0073	-0.0462	0.0165	0.9585
7.0766	0.056568	-7.2064	1.6468	3.0848	-1.8322	-7.2933	33.3579	818.2572	-56.137	318.9202	32.8651	711.0484	-0.0592	0.0182	-0.0073	-0.0462	0.0165	0.9585
7.0939	-0.2973	-10.0726	1.8256	4.1672	-2.197	-10.4529	39.5153	833.1633	-55.633	324.5207	29.8835	717.374	-0.0592	0.0182	-0.0073	-0.0462	0.0165	0.9585
7.1111	-0.94849	-11.5161	1.5021	4.6807	-2.1045	-12.0829	45.0187	849.5445	-55.3216	330.6568	27.3772	724.9625	-0.0592	0.0182	-0.0073	-0.0462	0.0165	0.9585
7.1284	-1.9504	-8.9834	0.22702	3.6309	-1.056	-9.4174	49.6529	864.9727	-55.1744	336.3125	25.3798	731.8919	-0.0592	0.0182	-0.0073	-0.0462	0.0165	0.9585
7.1457	-3.2443	1.2697	-2.5623	-0.43381	1.619	1.6299	53.1401	876.6279	-55.1251	340.3348	23.9263	735.9868	-0.0592	0.0182	-0.0073	-0.0462	0.0165	0.9585
7.163	-4.5652	23.8258	-7.4005	-9.2756	6.6441	26.1032	55.1068	881.364	-55.0721	341.4617	23.0732	734.868	-0.0592	0.0182	-0.0073	-0.0462	0.0165	0.9585
7.1803	-5.3016	62.8868	-14.4633	-24.486	14.485	68.6855	55.1379	875.8742	-54.902	338.3954	22.8873	726.0644	-0.0592	0.0182	-0.0073	-0.0462	0.0165	0.9585
7.1976	-4.4804	119.8271	-23.0152	-46.5281	24.7199	131.0303	52.9332	857.1855	-54.4228	330.0149	23.3274	707.3613	-0.0592	0.0182	-0.0073	-0.0462	0.0165	0.9585
7.2149	-2.3306	190.41	-30.6581	-73.6377	34.5887	208.6287	48.4858	823.4988	-53.32	315.719	24.155	677.4016	-0.0592	0.0182	-0.0073	-0.0462	0.0165	0.9585
7.2321	-2.5607	263.7959	-32.9522	-101.4705	37.7302	289.8018	42.2348	774.8276	-51.221	295.6701	24.9335	636.126	-0.0592	0.0182	-0.0073	-0.0462	0.0165	0.9585
7.2494	-7.0048	327.9905	-26.8998	-125.3356	30.075	361.6449	34.9895	713.0623	-47.8278	270.7817	25.1435	584.8546	-0.0592	0.0182	-0.0073	-0.0462	0.0165	0.9585
7.2667	-14.3977	378.7976	-14.4452	-143.7416	14.3042	419.4004	27.6748	641.7678	-43.0262	242.5748	24.3488	526.1947	-0.0592	0.0182	-0.0073	-0.0462	0.0165	0.9585
7.284	-23.1432	420.4065	0.016444	-158.565	-4.1211	467.2961	21.0358	565.4714	-36.9651	212.8586	22.3763	463.5963	-0.0592	0.0182	-0.0073	-0.0462	0.0165	0.9585
7.3013	-31.8589	458.9576	11.9899	-172.4725	-19.771	511.8644	15.3397	488.5922	-29.9637	183.3205	19.3507	400.5854	-0.0592	0.0182	-0.0073	-0.0462	0.0165	0.9585
7.3186	-39.5496	497.6533	18.8918	-186.9047	-29.471	556.4178	10.4628	414.9338	-22.4314	155.3485	15.6058	340.2973	-0.0592	0.0182	-0.0073	-0.0462	0.0165	0.9585
7.3359	-45.5548	536.6893	21.0926	-201.9339	-33.4149	600.8504	6.1655	347.6516	-14.907	130.0383	11.6091	285.35	-0.0592	0.0182	-0.0073	-0.0462	0.0165	0.9585
7.3531	-49.6799	575.1819	20.9916	-217.0161	-34.1744	643.8991	2.3678	288.9411	-8.1151	108.0978	7.9017	237.5337	-0.0592	0.0182	-0.0073	-0.0462	0.0165	0.9585
7.3704	-52.2527	612.351	21.1691	-231.5899	-34.697	684.5409	-0.8307	239.6605	-2.8013	89.7354	4.9827	197.4951	-0.0592	0.0182	-0.0073	-0.0462	0.0165	0.9585
7.3877	-53.7637	648.1001	22.8554	-245.4504	-36.5197	722.5528	-3.3183	199.3267	0.56402	74.6883	3.1579	164.7548	-0.0592	0.0182	-0.0073	-0.0462	0.0165	0.9585
7.405	-54.5348	682.9301	25.9073	-258.7654	-39.6012	758.4066	-5.1613	166.5854	1.9553	62.4178	2.4819	138.1385	-0.0592	0.0182	-0.0073	-0.0462	0.0165	0.9585
7.4223	-54.7282	717.0443	29.4557	-271.6835	-43.0474	792.3321	-6.6156	139.7919	1.7987	52.3226	2.7689	116.2668	-0.0592	0.0182	-0.0073	-0.0462	0.0165	0.9585
7.4396	-54.3935	749.5032	32.378	-283.9553	-45.6791	823.4324	-7.947	117.4943	0.70521	43.8921	3.7109	97.9458	-0.0592	0.0182	-0.0073	-0.0462	0.0165	0.9585
7.4569	-53.4832	778.4119	34.071	-294.9339	-46.8437	849.8676	-9.3393	98.7535	-0.76337	36.8053	4.999	82.4194	-0.0592	0.0182	-0.0073	-0.0462	0.0165	0.9585
7.4741	-51.9036	801.8434	34.6936	-303.9015	-46.6692	869.7842	-10.9468	83.1442	-2.2274	30.9195	6.4333	69.3642	-0.0592	0.0182	-0.0073	-0.0462	0.0165	0.9585
7.4914	-49.543	818.8999	34.6778	-310.4867	-45.5703	882.4078	-12.9229	70.4958	-3.5276	26.1706	7.9592	58.6693	-0.0592	0.0182	-0.0073	-0.0462	0.0165	0.9585
7.5087	-46.3534	829.9526	34.3546	-314.7812	-43.8822	888.278	-15.3288	60.624	-4.6686	22.4801	9.5937	50.2142	-0.0592	0.0182	-0.0073	-0.0462	0.0165	0.9585
7.526	-42.4262	836.2654	33.854	-317.2138	-41.7702	888.8752	-18.0148	53.1427	-5.6988	19.6919	11.3011	43.7219	-0.0592	0.0182	-0.0073	-0.0462	0.0165	0.9585
7.5433	-37.9436	839.4479	33.129	-318.35	-39.2388	886.023	-20.6437	47.4408	-6.6334	17.5684	12.949	38.7256	-0.0592	0.0182	-0.0073	-0.0462	0.0165	0.9585
7.5606	-33.0821	840.8516	32.1726	-318.6475	-36.3108	881.2447	-22.7535	42.7436	-7.4063	15.8177	14.3023	34.6147	-0.0592	0.0182	-0.0073	-0.0462	0.0165	0.9585
7.5779	-27.9626	841.3147	31.1487	-318.3485	-33.1556	875.4988	-23.8526	38.2439	-7.8772	14.1393	15.0524	30.7383	-0.0592	0.0182	-0.0073	-0.0462	0.0165	0.9585
7.5951	-22.6793	841.2763	30.3038	-317.5321	-30.0281	869.3124	-23.4958	33.2606	-7.8723	12.2804	14.8917	26.5608	-0.0592	0.0182	-0.0073	-0.0462	0.0165	0.9585
7.6124	-17.328	840.9714	29.9329	-316.2078	-27.2509	862.9817	-21.341	27.3534	-7.2432	10.0819	13.5766	21.743	-0.0592	0.0182	-0.0073	-0.0462	0.0165	0.9585
7.6297	-12.0829	840.5062	30.3209	-314.3876	-25.19	856.672	-17.3252	20.5194	-5.933	7.5477	11.0413	16.2648	-0.0592	0.0182	-0.0073	-0.0462	0.0165	0.9585
7.647	-7.1706	839.9365	31.4888	-312.1579	-23.9994	850.4946	-12.0578	13.4641	-4.1197	4.9411	7.6573	10.6578	-0.0592	0.0182	-0.0073	-0.0462	0.0165	0.9585
7.6643	-2.7801	839.4952	33.0699	-309.7439	-23.4622	844.693	-6.9746	7.4703	-2.3039	2.7332	4.3497	5.9313	-0.0592	0.0182	-0.0073	-0.0462	0.0165	0.9585
7.6816	0.96061	839.6864	34.5723	-307.4865	-23.2065	839.7104	-3.089	3.2493	-0.92004	1.1855	1.8363	2.6634	-0.0592	0.0182	-0.0073	-0.0462	0.0165	0.9585
7.6989	3.9748	841.3471	35.6473	-305.8115	-22.9635	836.2546	-0.60364	0.73763	-0.033845	0.2734	0.23292	0.773	-0.0592	0.0182	-0.0073	-0.0462	0.0165	0.9585
7.7161	6.2346	845.4788	36.2152	-305.1479	-22.6785	835.1719	0.70424	-0.46833	0.43032	-0.15605	-0.60698	-0.1038	-0.0592	0.0182	-0.0073	-0.0462	0.0165	0.9585
7.7334	7.7564	852.6658	36.4126	-305.7335	-22.4578	836.913	1.2019	-0.82845	0.59425	-0.27777	-0.91221	-0.33893	-0.0592	0.0182	-0.0073	-0.0462	0.0165	0.9585
7.7507	8.5979	862.543	36.4063	-307.4375	-22.3973	841.0663	1.2368	-0.73107	0.5922	-0.23473	-0.91907	-0.23051	-0.0592	0.0182	-0.0073	-0.0462	0.0165	0.9585
7.768	8.9046	873.6783	36.3257	-309.7448	-22.5255	846.2221	1.0669	-0.45897	0.51695	-0.12797	-0.79857	-0.0026051	-0.0592	0.0182	-0.0073	-0.0462	0.0165	0.9585
7.7853	8.886	884.0887	36.2675	-311.9558	-22.8293	850.4826	0.8549	-0.17096	0.41658	-0.014477	-0.64685	0.21921	-0.0592	0.0182	-0.0073	-0.0462	0.0165	0.9585
7.8026	8.7649	891.9358	36.2977	-313.4392	-23.2751	852.1312	0.68419	0.064042	0.32581	0.079115	-0.51999	0.3896	-0.0592	0.0182	-0.0073	-0.0462	0.0165	0.9585
7.8199	8.7038	895.9683	36.452	-313.7794	-23.8282	850.0623	0.5695	0.22308	0.25973	0.14059	-0.43443	0.485	-0.0592	0.0182	-0.0073	-0.0462	0.0165	0.9585
7.8371	8.7996	895.7182	36.6848	-312.8394	-24.4196	843.9465	0.49079	0.3145	0.21023	0.17241	-0.37778	0.51645	-0.0592	0.0182	-0.0073	-0.0462	0.0165	0.9585
7.8544	9.0848	891.6531	36.8296	-310.8101	-24.904	834.3431	0.43486	0.34782	0.17043	0.18495	-0.33427	0.49022	-0.0592	0.0182	-0.0073	-0.0462	0.0165	0.9585
7.8717	9.5353	885.1932	36.6655	-308.2137	-25.1037	822.6978	0.39364	0.34361	0.14265	0.19012	-0.29696	0.44258	-0.0592	0.0182	-0.0073	-0.0462	0.0165	0.9585
7.889	10.0984	878.3196	36.0444	-305.7437	-24.9115	810.9317	0.36716	0.32214	0.12457	0.19248	-0.26268	0.40045	-0.0592	0.0182	-0.0073	-0.0462	0.0165	0.9585
7.9063	10.6764	872.8764	34.9474	-304.0052	-24.339	800.7969	0.34701	0.30541	0.11327	0.19529	-0.22934	0.39263	-0.0592	0.0182	-0.0073	-0.0462	0.0165	0.9585
